<svg width="246" height="353" viewBox="0 0 246 353" fill="none" xmlns="http://www.w3.org/2000/svg">
<path d="M13 230.998H462V261.998H45L13 230.998Z" fill="#0E101C"/>
<path fill-rule="evenodd" clip-rule="evenodd" d="M957.502 182.564L494.227 184.637L491.965 172.614L439.751 172.86L437.995 163.523L682.505 162.939L683.175 166.503L954.371 165.919L957.502 182.564ZM169.49 225.699L629.543 224.232L626.412 207.587L414.072 207.768L412.541 199.63L59.0851 200.32L61.6295 213.848L167.176 213.397L169.49 225.699ZM196.75 175.541L21.2559 176.536L20.0017 169.867L195.572 169.276L196.75 175.541Z" fill="url(#paint0_linear_3243_440)"/>
<g filter="url(#filter0_f_3243_440)">
<path fill-rule="evenodd" clip-rule="evenodd" d="M957.502 182.564L494.227 184.637L491.965 172.614L439.751 172.86L437.995 163.523L682.505 162.939L683.175 166.503L954.371 165.919L957.502 182.564ZM169.49 225.699L629.543 224.232L626.412 207.587L414.072 207.768L412.541 199.63L59.0851 200.32L61.6295 213.848L167.176 213.397L169.49 225.699ZM196.75 175.541L21.2559 176.536L20.0017 169.867L195.572 169.276L196.75 175.541Z" fill="url(#paint1_linear_3243_440)"/>
</g>
<defs>
<filter id="filter0_f_3243_440" x="0.00195312" y="142.939" width="977.5" height="102.76" filterUnits="userSpaceOnUse" color-interpolation-filters="sRGB">
<feFlood flood-opacity="0" result="BackgroundImageFix"/>
<feBlend mode="normal" in="SourceGraphic" in2="BackgroundImageFix" result="shape"/>
<feGaussianBlur stdDeviation="10" result="effect1_foregroundBlur_3243_440"/>
</filter>
<linearGradient id="paint0_linear_3243_440" x1="345.811" y1="305.951" x2="477.765" y2="97.1129" gradientUnits="userSpaceOnUse">
<stop stop-color="#FF7136"/>
<stop offset="1" stop-color="#FC5104"/>
</linearGradient>
<linearGradient id="paint1_linear_3243_440" x1="345.811" y1="305.951" x2="477.765" y2="97.1129" gradientUnits="userSpaceOnUse">
<stop stop-color="#FF7136"/>
<stop offset="1" stop-color="#FC5104"/>
</linearGradient>
</defs>
</svg>
