<svg width="175" height="43" viewBox="0 0 175 43" fill="none" xmlns="http://www.w3.org/2000/svg">
<g clip-path="url(#clip0_3216_345)">
<path d="M69.4238 17.531C68.2143 17.531 67.2079 17.4285 66.4016 17.2263C65.5953 17.0241 64.9514 16.6989 64.467 16.2505C63.9827 15.8022 63.6404 15.2162 63.4403 14.4924C63.2373 13.7687 63.1387 12.8779 63.1387 11.8172V6.59272C63.1387 5.55252 63.2402 4.66468 63.4403 3.93214C63.6404 3.19959 63.9827 2.61063 64.467 2.16232C64.9514 1.714 65.5953 1.38875 66.4016 1.18657C67.2079 0.984392 68.2143 0.881836 69.4238 0.881836H75.6828C76.9068 0.881836 77.9219 0.984392 78.7282 1.18657C79.5345 1.39168 80.1784 1.71693 80.6627 2.16232C81.1471 2.61063 81.4894 3.19959 81.6895 3.93214C81.8896 4.66468 81.9911 5.55252 81.9911 6.59272V11.8172C81.9911 12.875 81.8896 13.7658 81.6895 14.4924C81.4865 15.2162 81.1442 15.8022 80.6627 16.2505C80.1784 16.6989 79.5345 17.0241 78.7282 17.2263C77.9219 17.4314 76.9068 17.531 75.6828 17.531H69.4238ZM78.3192 6.76267C78.3192 6.2411 78.2757 5.81037 78.1858 5.46754C78.0959 5.12471 77.948 4.84928 77.7392 4.6383C77.5303 4.42733 77.2432 4.28082 76.8807 4.19878C76.5181 4.11674 76.0715 4.07571 75.5378 4.07571H69.592C69.0119 4.07571 68.5392 4.11674 68.1766 4.19878C67.8141 4.28082 67.5269 4.42733 67.3181 4.6383C67.1093 4.84928 66.9672 5.12764 66.8947 5.46754C66.8221 5.80744 66.7844 6.2411 66.7844 6.76267V11.6707C66.7844 12.2069 66.8221 12.6523 66.8947 13.001C66.9672 13.3526 67.1093 13.628 67.3181 13.8302C67.5269 14.0353 67.8141 14.1731 68.1766 14.2463C68.5392 14.3196 69.009 14.3577 69.592 14.3577H75.5378C76.0685 14.3577 76.5152 14.3196 76.8807 14.2463C77.2432 14.1731 77.5303 14.0353 77.7392 13.8302C77.948 13.628 78.0988 13.3497 78.1858 13.001C78.2728 12.6523 78.3192 12.2069 78.3192 11.6707V6.76267Z" fill="#FFFDFD"/>
<path d="M97.9916 17.531L88.3479 11.4744V17.531H84.6992V0.878906H97.6059C98.766 0.878906 99.758 0.95216 100.579 1.09867C101.4 1.24518 102.072 1.50596 102.597 1.88102C103.12 2.25608 103.502 2.76886 103.746 3.41936C103.987 4.06985 104.109 4.89323 104.109 5.88655V7.03518C104.109 7.99627 103.981 8.79034 103.723 9.4174C103.465 10.0445 103.067 10.5397 102.528 10.9059C101.988 11.2722 101.307 11.53 100.486 11.6766C99.6652 11.8231 98.6877 11.8963 97.5624 11.8963H94.662L104.329 17.5369H97.9974L97.9916 17.531ZM100.434 6.07994C100.434 5.64042 100.384 5.28294 100.289 5.00458C100.193 4.72914 100.031 4.51524 99.8044 4.36873C99.5781 4.22222 99.2649 4.12553 98.8618 4.07571C98.4586 4.0259 97.9597 4.00246 97.3623 4.00246H88.3479V9.08043H97.3623C97.9568 9.08043 98.4528 9.05699 98.8502 9.00718C99.2446 8.95736 99.5578 8.86067 99.7928 8.71416C100.025 8.56765 100.19 8.35668 100.289 8.07832C100.384 7.80288 100.434 7.43661 100.434 6.9795V6.07701V6.07994Z" fill="#FFFDFD"/>
<path d="M106.646 0.878906H120.545C121.479 0.878906 122.277 0.94337 122.938 1.07523C123.599 1.20708 124.136 1.42099 124.545 1.72279C124.957 2.0246 125.258 2.41431 125.45 2.89486C125.644 3.3754 125.74 3.96437 125.74 4.66468V6.03306C125.74 7.00881 125.571 7.70912 125.232 8.13399C124.893 8.55886 124.466 8.84309 123.95 8.9896C124.24 9.05406 124.51 9.15662 124.759 9.29433C125.009 9.43205 125.223 9.6313 125.4 9.89209C125.577 10.1529 125.714 10.4898 125.812 10.9059C125.911 11.322 125.957 11.8377 125.957 12.456V13.9211C125.957 14.5891 125.864 15.1517 125.679 15.6059C125.493 16.063 125.194 16.4322 124.785 16.7164C124.374 17.0007 123.84 17.2087 123.179 17.3406C122.517 17.4724 121.72 17.5369 120.786 17.5369H106.646V0.878906ZM110.318 3.90576V7.73842H120.615C121.259 7.73842 121.702 7.63293 121.943 7.42196C122.184 7.21099 122.306 6.82714 122.306 6.27334V5.22434C122.306 4.72035 122.158 4.37459 121.859 4.18706C121.56 3.99953 121.024 3.90576 120.252 3.90576H110.318ZM110.318 10.4254V14.5042H120.591C121.285 14.5042 121.781 14.4104 122.079 14.2229C122.378 14.0353 122.526 13.6808 122.526 13.1592V12.1337C122.526 11.4509 122.393 10.9938 122.129 10.7653C121.862 10.5367 121.392 10.4224 120.713 10.4224H110.321L110.318 10.4254Z" fill="#FFFDFD"/>
<path d="M69.4238 40.533C68.2143 40.533 67.2079 40.4304 66.4016 40.2282C65.5953 40.0261 64.9514 39.7008 64.467 39.2525C63.9827 38.8042 63.6404 38.2181 63.4403 37.4944C63.2373 36.7706 63.1387 35.8799 63.1387 34.8221V29.5976C63.1387 28.5574 63.2402 27.6696 63.4403 26.937C63.6404 26.2045 63.9827 25.6155 64.467 25.1672C64.9514 24.7189 65.5953 24.3936 66.4016 24.1915C67.2079 23.9893 68.2143 23.8867 69.4238 23.8867H73.725V27.0865H69.592C69.0438 27.0865 68.5885 27.1304 68.2259 27.2212C67.8634 27.3121 67.5762 27.4615 67.3674 27.6725C67.1586 27.8835 67.0078 28.1618 66.9208 28.5017C66.8308 28.8446 66.7873 29.2665 66.7873 29.7705V34.6785C66.7873 35.2323 66.8308 35.6836 66.9208 36.0322C67.0078 36.3839 67.1615 36.6564 67.379 36.8498C67.5965 37.0461 67.8866 37.1779 68.2491 37.2512C68.6117 37.3244 69.0583 37.3625 69.592 37.3625H75.8046C76.3209 37.3625 76.7559 37.3244 77.1098 37.2512C77.4636 37.1779 77.7508 37.0402 77.9683 36.8351C78.1858 36.6329 78.3424 36.3428 78.4382 35.9678C78.5339 35.5927 78.5832 35.1122 78.5832 34.5261V30.6671H82.2579V34.8192C82.2579 35.8769 82.1564 36.7677 81.9563 37.4915C81.7533 38.2152 81.411 38.8012 80.9296 39.2496C80.4452 39.6979 79.7984 40.0231 78.9834 40.2253C78.1684 40.4304 77.1504 40.53 75.9264 40.53H69.4238V40.533Z" fill="#FFFDFD"/>
<path d="M100.63 36.7004H89.2226L86.8791 40.533H82.6504L92.2216 25.1497C92.5117 24.6779 92.8568 24.2882 93.26 23.9776C93.6631 23.6699 94.2432 23.5146 95.0002 23.5146C95.7572 23.5146 96.3141 23.6699 96.7172 23.9776C97.1204 24.2882 97.4655 24.6779 97.7556 25.1497L107.277 40.533H103.023L100.63 36.7004ZM90.9368 33.8435H98.9128L94.9248 27.274L90.9368 33.8435Z" fill="#FFFDFD"/>
<path d="M131.517 40.533V29.5684L123.469 40.1902C123.097 40.662 122.558 40.8993 121.85 40.8993C121.143 40.8993 120.6 40.662 120.232 40.1902L112.207 29.5684V40.533H108.871V25.0266C108.871 24.505 109.06 24.1241 109.44 23.878C109.817 23.6348 110.289 23.5117 110.852 23.5117C111.287 23.5117 111.632 23.5733 111.89 23.6963C112.149 23.8194 112.381 24.0186 112.592 24.2941L121.897 36.7707L131.274 24.2941C131.482 24.0186 131.706 23.8165 131.938 23.6963C132.17 23.5733 132.498 23.5117 132.918 23.5117C133.481 23.5117 133.954 23.6348 134.331 23.878C134.711 24.1212 134.899 24.505 134.899 25.0266V40.533H131.514H131.517Z" fill="#FFFDFD"/>
<path d="M143.871 40.533C142.662 40.533 141.655 40.4304 140.849 40.2282C140.043 40.0261 139.399 39.7008 138.914 39.2525C138.43 38.8042 138.088 38.2181 137.888 37.4944C137.685 36.7706 137.586 35.8799 137.586 34.8221V29.5976C137.586 28.5574 137.687 27.6696 137.888 26.937C138.088 26.2045 138.43 25.6155 138.914 25.1672C139.399 24.7189 140.043 24.3936 140.849 24.1915C141.655 23.9893 142.662 23.8867 143.871 23.8867H147.932V27.0366H143.871C143.34 27.0366 142.905 27.0806 142.566 27.1714C142.227 27.2623 141.957 27.4029 141.757 27.5992C141.554 27.7956 141.417 28.0563 141.345 28.3816C141.272 28.7068 141.235 29.1141 141.235 29.6035V30.7257H155.278V33.6793H141.235V34.8514C141.235 35.3554 141.272 35.7715 141.345 36.0967C141.417 36.422 141.551 36.6827 141.742 36.8791C141.934 37.0754 142.206 37.2072 142.551 37.2805C142.897 37.3537 143.337 37.3918 143.868 37.3918H155.374V40.5418H143.868L143.871 40.533Z" fill="#FFFDFD"/>
<path d="M157.258 40.533V37.383H169.779C170.44 37.383 170.916 37.2893 171.206 37.1018C171.496 36.9142 171.641 36.5362 171.641 35.9678V35.0653C171.641 34.5437 171.496 34.1745 171.206 33.9548C170.916 33.735 170.449 33.6266 169.805 33.6266H161.951C161.031 33.6266 160.271 33.5416 159.668 33.3687C159.065 33.1988 158.583 32.938 158.229 32.5864C157.876 32.2377 157.629 31.7982 157.493 31.2678C157.356 30.7404 157.287 30.1162 157.287 29.4013V28.5721C157.287 27.7252 157.374 27.0015 157.554 26.3979C157.731 25.7972 158.003 25.3108 158.374 24.9445C158.746 24.5782 159.227 24.3087 159.825 24.1387C160.422 23.9688 161.13 23.8809 161.951 23.8809H167.076V27.0308H162.29C161.727 27.0308 161.313 27.1421 161.046 27.3619C160.779 27.5817 160.645 28.0241 160.645 28.6922V29.2284C160.645 29.75 160.767 30.1192 161.008 30.3389C161.249 30.5587 161.669 30.6671 162.264 30.6671H169.973C170.892 30.6671 171.67 30.7433 172.305 30.8986C172.94 31.0539 173.462 31.3 173.862 31.6429C174.266 31.9857 174.556 32.4252 174.733 32.9614C174.91 33.4977 174.999 34.1423 174.999 34.8895V36.2081C174.999 36.9904 174.91 37.6526 174.733 38.1976C174.556 38.7426 174.266 39.188 173.862 39.5279C173.459 39.8708 172.94 40.1227 172.305 40.2839C171.667 40.448 170.89 40.5271 169.973 40.5271H157.261L157.258 40.533Z" fill="#FFFDFD"/>
<path d="M47.9974 21.46L44.5402 34.4992C44.0732 36.2573 42.7013 37.6403 40.964 38.1091L26.787 41.9506C26.3664 42.0619 25.9255 42.1205 25.4847 42.1205C24.1447 42.1205 22.8395 41.5755 21.8998 40.6291L11.5252 30.1479C11.444 30.0658 11.3744 29.9867 11.3105 29.9164C13.5119 29.6175 15.9802 29.222 18.6601 28.7385L24.3361 34.4699C24.9887 35.1292 25.8936 35.5072 26.816 35.5072C27.1234 35.5072 27.4279 35.4661 27.7238 35.387L36.9035 32.9052C38.1071 32.577 39.0613 31.6188 39.3891 30.394L41.2105 23.5111C43.6468 22.8225 45.9294 22.1339 47.9974 21.46Z" fill="url(#paint0_linear_3216_345)"/>
<path d="M34.9577 21.9587L34.6242 23.2187L34.0876 25.2463L33.8353 26.1986C33.6932 26.7349 33.2784 27.1539 32.7476 27.2974L28.5479 28.4343C28.0171 28.5779 27.4515 28.4256 27.0629 28.0329L26.1377 27.0982L24.5918 25.5364L23.9914 24.9269C23.6027 24.5343 23.449 23.9629 23.5911 23.4238L24.4178 20.3119L24.7165 19.1838C24.8586 18.6476 25.2734 18.2286 25.8041 18.085L26.2653 17.959L30.0039 16.9481C30.2272 16.8866 30.4563 16.8807 30.6768 16.9217C30.9784 16.9774 31.2655 17.1268 31.4889 17.3525L32.5272 18.4015L34.5604 20.4555C34.949 20.8482 35.1027 21.4225 34.9577 21.9587Z" fill="url(#paint1_linear_3216_345)"/>
<path d="M31.7184 10.7471C31.7416 10.7471 31.7648 10.7471 31.788 10.7471C31.7184 10.7471 31.6517 10.7471 31.5879 10.75C31.6314 10.7471 31.672 10.7441 31.7184 10.7441V10.7471Z" fill="url(#paint2_linear_3216_345)"/>
<path d="M59.1936 13.9148C59.2081 14.1053 59.0485 14.4393 58.2596 14.9785C56.6876 16.0685 53.3464 17.475 48.5985 19.0514C46.5798 19.7283 44.3059 20.4286 41.8377 21.1347L41.8696 21.0146L41.8754 20.9912V20.9706L41.8928 20.9003L41.9044 20.8447V20.83L41.9102 20.8183C41.9218 20.7509 41.9363 20.6747 41.9421 20.5897C41.9711 20.3114 41.9682 20.033 41.9363 19.7663L41.9218 19.6697V19.6521C41.9044 19.5583 41.8899 19.4675 41.8725 19.3972C41.858 19.3356 41.8406 19.2536 41.8116 19.1657L41.7623 19.025C41.7449 18.9664 41.7246 18.9107 41.7014 18.8551C41.6608 18.7496 41.6115 18.647 41.5593 18.5474C41.3939 18.2368 41.1851 17.9496 40.9357 17.6977L38.0527 14.7821H38.0759L36.588 13.2819L34.2387 10.9114C33.6964 10.3635 32.98 10.006 32.2259 9.90635C32.1389 9.89463 32.0257 9.87998 31.8981 9.87412C31.8372 9.87119 31.7763 9.86826 31.7183 9.86826C31.6516 9.86826 31.5878 9.86826 31.5269 9.87705C31.3122 9.8917 31.0831 9.92979 30.8395 9.99133L21.6685 12.4761C20.459 12.8043 19.5106 13.7654 19.1887 14.9814L18.5825 17.2699H18.5622L18.3882 17.9203L16.7059 24.2612C16.6827 24.3462 16.6682 24.4224 16.6537 24.4956V24.5074L16.6479 24.5191C16.6363 24.5923 16.6276 24.6568 16.616 24.7213V24.7388C16.6073 24.7974 16.6015 24.8502 16.5986 24.9029L16.5928 24.9498V24.985C16.5522 25.6267 16.6943 26.2655 17.0018 26.8456C14.5191 27.2793 12.1988 27.6309 10.096 27.8917C7.30873 28.2375 5.02323 28.4133 3.30911 28.4133C2.30268 28.4133 1.51378 28.3517 0.951105 28.2287C0.246314 28.0792 0.0577897 27.8682 0.0229852 27.713C-0.00601859 27.5811 -0.00601859 27.5752 0.014284 27.5283C0.0519889 27.4346 0.202809 27.1679 0.808987 26.7284C2.35199 25.6032 5.61491 24.2055 10.5049 22.5764L10.9516 22.4269L11.0734 21.9698L11.7985 19.236L11.8217 19.2272L11.9377 18.7906L14.0318 10.8821C14.4988 9.12693 15.8706 7.74096 17.608 7.26921L31.7879 3.43362C32.2114 3.31642 32.6493 3.25781 33.0902 3.25781C34.4243 3.25781 35.7295 3.80282 36.6721 4.7522L45.6546 13.8269L45.962 14.1404L46.3942 14.076C50.4257 13.4812 53.5929 13.1793 55.8088 13.1793C57.7405 13.1793 58.5845 13.405 58.9499 13.5925C59.1413 13.6921 59.1501 13.7185 59.1849 13.8738L59.1936 13.9148Z" fill="url(#paint3_linear_3216_345)"/>
</g>
<defs>
<linearGradient id="paint0_linear_3216_345" x1="11.3105" y1="31.7917" x2="47.9974" y2="31.7917" gradientUnits="userSpaceOnUse">
<stop offset="0.3" stop-color="#FF5310"/>
<stop offset="0.63" stop-color="#FF5310"/>
</linearGradient>
<linearGradient id="paint1_linear_3216_345" x1="3.12899" y1="33.1138" x2="56.444" y2="12.2919" gradientUnits="userSpaceOnUse">
<stop offset="0.3" stop-color="#FF5310"/>
<stop offset="0.63" stop-color="#FF5310"/>
</linearGradient>
<linearGradient id="paint2_linear_3216_345" x1="31.7387" y1="10.7002" x2="31.6362" y2="10.8017" gradientUnits="userSpaceOnUse">
<stop offset="0.3" stop-color="#FF5310"/>
<stop offset="0.63" stop-color="#FF5310"/>
</linearGradient>
<linearGradient id="paint3_linear_3216_345" x1="46.7974" y1="1.53195" x2="10.5683" y2="38.202" gradientUnits="userSpaceOnUse">
<stop offset="0.3" stop-color="#FF5310"/>
<stop offset="0.63" stop-color="#FF5310"/>
</linearGradient>
<clipPath id="clip0_3216_345">
<rect width="175" height="41.242" fill="white" transform="translate(0 0.878906)"/>
</clipPath>
</defs>
</svg>
