<svg width="60" height="40" viewBox="0 0 60 40" fill="none" xmlns="http://www.w3.org/2000/svg">
<path d="M47.9974 18.46L44.5402 31.4992C44.0732 33.2573 42.7013 34.6403 40.964 35.1091L26.787 38.9506C26.3664 39.0619 25.9255 39.1205 25.4847 39.1205C24.1447 39.1205 22.8395 38.5755 21.8998 37.6291L11.5252 27.1479C11.444 27.0658 11.3744 26.9867 11.3105 26.9164C13.5119 26.6175 15.9802 26.222 18.6601 25.7385L24.3361 31.4699C24.9887 32.1292 25.8936 32.5072 26.816 32.5072C27.1234 32.5072 27.4279 32.4661 27.7238 32.387L36.9035 29.9052C38.1071 29.577 39.0613 28.6188 39.3891 27.394L41.2105 20.5111C43.6468 19.8225 45.9294 19.1339 47.9974 18.46Z" fill="url(#paint0_linear_5101_2)"/>
<path d="M34.9577 18.9587L34.6242 20.2187L34.0876 22.2463L33.8353 23.1986C33.6932 23.7349 33.2784 24.1539 32.7476 24.2974L28.5479 25.4343C28.0171 25.5779 27.4515 25.4256 27.0629 25.0329L26.1377 24.0982L24.5918 22.5364L23.9914 21.9269C23.6027 21.5343 23.449 20.9629 23.5911 20.4238L24.4178 17.3119L24.7165 16.1838C24.8586 15.6476 25.2734 15.2286 25.8041 15.085L26.2653 14.959L30.0039 13.9481C30.2272 13.8866 30.4563 13.8807 30.6768 13.9217C30.9784 13.9774 31.2655 14.1268 31.4889 14.3525L32.5272 15.4015L34.5604 17.4555C34.949 17.8482 35.1027 18.4225 34.9577 18.9587Z" fill="url(#paint1_linear_5101_2)"/>
<path d="M31.7184 7.74707C31.7416 7.74707 31.7648 7.74707 31.788 7.74707C31.7184 7.74707 31.6517 7.74707 31.5879 7.75C31.6314 7.74707 31.672 7.74414 31.7184 7.74414V7.74707Z" fill="url(#paint2_linear_5101_2)"/>
<path d="M59.1936 10.9148C59.2081 11.1053 59.0485 11.4393 58.2596 11.9785C56.6876 13.0685 53.3464 14.475 48.5985 16.0514C46.5798 16.7283 44.3059 17.4286 41.8377 18.1347L41.8696 18.0146L41.8754 17.9912V17.9706L41.8928 17.9003L41.9044 17.8447V17.83L41.9102 17.8183C41.9218 17.7509 41.9363 17.6747 41.9421 17.5897C41.9711 17.3114 41.9682 17.033 41.9363 16.7663L41.9218 16.6697V16.6521C41.9044 16.5583 41.8899 16.4675 41.8725 16.3972C41.858 16.3356 41.8406 16.2536 41.8116 16.1657L41.7623 16.025C41.7449 15.9664 41.7246 15.9107 41.7014 15.8551C41.6608 15.7496 41.6115 15.647 41.5593 15.5474C41.3939 15.2368 41.1851 14.9496 40.9357 14.6977L38.0527 11.7821H38.0759L36.588 10.2819L34.2387 7.9114C33.6964 7.36346 32.98 7.00598 32.2259 6.90635C32.1389 6.89463 32.0257 6.87998 31.8981 6.87412C31.8372 6.87119 31.7763 6.86826 31.7183 6.86826C31.6516 6.86826 31.5878 6.86826 31.5269 6.87705C31.3122 6.8917 31.0831 6.92979 30.8395 6.99133L21.6685 9.47611C20.459 9.80428 19.5106 10.7654 19.1887 11.9814L18.5825 14.2699H18.5622L18.3882 14.9203L16.7059 21.2612C16.6827 21.3462 16.6682 21.4224 16.6537 21.4956V21.5074L16.6479 21.5191C16.6363 21.5923 16.6276 21.6568 16.616 21.7213V21.7388C16.6073 21.7974 16.6015 21.8502 16.5986 21.9029L16.5928 21.9498V21.985C16.5522 22.6267 16.6943 23.2655 17.0018 23.8456C14.5191 24.2793 12.1988 24.6309 10.096 24.8917C7.30873 25.2375 5.02323 25.4133 3.30911 25.4133C2.30268 25.4133 1.51378 25.3517 0.951105 25.2287C0.246314 25.0792 0.0577897 24.8682 0.0229852 24.713C-0.00601859 24.5811 -0.00601859 24.5752 0.014284 24.5283C0.0519889 24.4346 0.202809 24.1679 0.808987 23.7284C2.35199 22.6032 5.61491 21.2055 10.5049 19.5764L10.9516 19.4269L11.0734 18.9698L11.7985 16.236L11.8217 16.2272L11.9377 15.7906L14.0318 7.8821C14.4988 6.12693 15.8706 4.74096 17.608 4.26921L31.7879 0.433622C32.2114 0.316416 32.6493 0.257812 33.0902 0.257812C34.4243 0.257812 35.7295 0.802823 36.6721 1.7522L45.6546 10.8269L45.962 11.1404L46.3942 11.076C50.4257 10.4812 53.5929 10.1793 55.8088 10.1793C57.7405 10.1793 58.5845 10.405 58.9499 10.5925C59.1413 10.6921 59.1501 10.7185 59.1849 10.8738L59.1936 10.9148Z" fill="url(#paint3_linear_5101_2)"/>
<defs>
<linearGradient id="paint0_linear_5101_2" x1="11.3105" y1="28.7917" x2="47.9974" y2="28.7917" gradientUnits="userSpaceOnUse">
<stop offset="0.3" stop-color="#FF5310"/>
<stop offset="0.63" stop-color="#FF5310"/>
</linearGradient>
<linearGradient id="paint1_linear_5101_2" x1="3.12899" y1="30.1138" x2="56.444" y2="9.29191" gradientUnits="userSpaceOnUse">
<stop offset="0.3" stop-color="#FF5310"/>
<stop offset="0.63" stop-color="#FF5310"/>
</linearGradient>
<linearGradient id="paint2_linear_5101_2" x1="31.7387" y1="7.70019" x2="31.6362" y2="7.80169" gradientUnits="userSpaceOnUse">
<stop offset="0.3" stop-color="#FF5310"/>
<stop offset="0.63" stop-color="#FF5310"/>
</linearGradient>
<linearGradient id="paint3_linear_5101_2" x1="46.7974" y1="-1.46805" x2="10.5683" y2="35.202" gradientUnits="userSpaceOnUse">
<stop offset="0.3" stop-color="#FF5310"/>
<stop offset="0.63" stop-color="#FF5310"/>
</linearGradient>
</defs>
</svg>
